<svg width="360" height="360" viewBox="0 0 360 360" fill="none" xmlns="http://www.w3.org/2000/svg">
<path d="M38.6231 26.3174C31.5808 27.2563 25.1019 30.3549 20.3132 35.2376C4.72624 51.294 9.60889 77.2095 30.1723 87.2565C33.8343 89.0406 36.0879 89.5101 43.1301 89.5101C50.7358 89.5101 52.1442 89.2284 57.2147 86.6931L62.7546 83.7823L75.9002 91.2002C83.1303 95.3317 92.3322 100.496 96.3697 102.843L103.6 107.069L102.004 109.228C101.065 110.355 98.2477 114.111 95.7125 117.397L91.1115 123.501L82.3791 118.9L73.7406 114.299L65.9471 126.787C61.7217 133.642 58.0598 139.839 57.872 140.684C57.6842 141.529 60.1255 143.97 64.6325 147.163C68.4823 149.98 71.6748 152.421 71.6748 152.515C71.6748 152.703 71.2053 153.923 70.642 155.426C70.0786 156.834 68.6701 162.28 67.5434 167.445L65.3837 176.834L61.7217 177.398C59.7499 177.773 55.6184 178.337 52.7076 178.712L47.2616 179.276V193.83C47.2616 208.008 47.2616 208.29 49.4212 208.759C52.2381 209.417 65.1959 212.046 65.5715 212.046C65.7593 212.046 66.1349 214.299 66.5105 216.928C66.8861 219.651 68.2006 225.379 69.4213 229.698C70.642 233.924 71.6748 237.961 71.6748 238.619C71.6748 239.276 69.2335 241.154 66.3227 242.844C63.318 244.44 59.8438 246.6 58.5292 247.633L56.2757 249.417L58.9048 254.487C60.4072 257.21 63.6936 262.468 66.1349 266.224L70.642 272.891L59.1865 282.562C52.8954 287.821 47.0738 292.797 46.2287 293.454C44.9142 294.581 43.9752 294.581 39.8437 293.173C34.2099 291.389 28.3883 291.858 23.0362 294.581C18.623 296.835 16.839 298.807 14.4915 304.065C10.8296 312.14 12.4258 320.121 18.9986 326.694C28.2005 335.99 42.0034 334.675 49.5151 323.971C52.9893 319.088 53.9283 310.356 51.6748 304.722L50.1724 301.342L58.8109 293.924C63.5997 289.886 72.5199 282.468 78.7171 277.398L89.9847 268.29L91.8627 270.919C92.8017 272.421 96.5575 276.553 100.032 280.215C103.506 283.877 106.417 287.257 106.417 287.821C106.417 288.384 104.914 291.952 103.13 295.896C101.346 299.839 99.8439 303.22 99.8439 303.595C99.8439 304.159 123.694 320.027 124.539 320.027C125.008 320.027 133.835 309.323 136.182 306.037C136.37 305.755 140.407 306.882 145.196 308.572C149.891 310.168 156.652 311.952 160.032 312.609L166.229 313.736L166.886 319.933C167.168 323.314 167.45 327.727 167.45 329.699V333.173L183.224 332.985L198.905 332.703L199.656 323.314C200.126 318.149 200.595 313.83 200.689 313.736C200.783 313.642 204.164 312.891 208.295 312.046C212.333 311.201 218.999 309.323 222.943 307.821L230.267 305.192L234.774 310.825C237.215 313.924 239.938 317.398 240.783 318.431L242.286 320.309L245.948 318.055C248.013 316.835 253.741 313.173 258.812 309.98L267.92 303.971L264.164 297.116C262.098 293.361 260.408 289.699 260.408 289.041C260.408 288.384 262.849 285.191 265.854 282.093C268.765 278.9 272.427 274.957 273.835 273.267L276.37 270.168L284.445 276.553C288.953 280.027 293.366 283.595 294.305 284.346C295.901 285.567 295.995 286.224 295.056 289.511C294.492 291.576 294.211 296.647 294.399 300.778C294.868 309.699 297.779 315.99 304.164 321.905C311.3 328.478 315.056 329.886 325.666 329.886C336.558 329.886 340.878 328.29 347.544 321.905C353.835 315.802 356.465 309.792 356.934 300.121C357.31 292.515 357.122 291.483 354.493 285.943C348.108 272.14 335.807 265.473 320.502 267.539C313.929 268.478 308.765 270.919 303.788 275.426C300.314 278.525 300.22 278.525 298.061 276.929L295.807 275.238L299.563 269.698C304.258 262.75 310.173 252.609 310.173 251.482C310.173 251.107 306.417 248.478 301.91 245.755L293.554 240.872L295.713 234.205C296.84 230.543 298.53 224.158 299.375 220.027C300.22 215.895 301.065 212.327 301.347 212.046C301.629 211.764 305.76 210.919 310.455 210.168L319.093 208.759L319.375 194.111L319.563 179.37L314.211 178.806C300.22 177.21 300.877 177.398 300.22 173.642C299.939 171.764 298.718 166.506 297.497 161.811C296.277 157.21 295.338 153.36 295.431 153.266C295.525 153.172 298.53 151.107 302.004 148.759L308.483 144.346L312.145 148.571C323.788 161.811 342.943 158.43 349.141 142.186C352.521 133.454 348.859 121.717 341.347 116.74C336.371 113.454 328.765 112.045 323.882 113.454C315.15 115.989 309.047 122.656 307.544 131.388L306.793 135.52L300.784 125.379C297.497 119.839 294.586 115.332 294.305 115.332C294.023 115.332 289.798 117.397 285.009 119.933L276.37 124.44L272.896 119.651C271.018 117.022 267.168 112.515 264.445 109.604L259.375 104.252L263.225 95.989C266.229 89.4162 266.793 87.5382 265.854 86.5993C264.915 85.7542 249.234 75.7072 242.849 71.8574C242.192 71.3879 239.563 74.017 235.807 78.7119C231.675 83.9701 229.516 86.0359 228.483 85.6603C222.661 83.1251 214.586 80.4959 208.201 79.0875L200.502 77.3973L199.938 72.6086C199.656 70.0734 199.375 65.9419 199.375 63.4067V58.9935H183.412H167.45V64.8151C167.45 68.1015 167.168 72.233 166.886 74.017C166.323 77.3034 166.229 77.3973 160.126 78.5241C156.746 79.1814 149.985 81.0593 145.102 82.6556C137.778 85.0969 136.182 85.3786 135.431 84.2518C133.553 81.0593 125.572 71.294 125.008 71.2001C123.975 71.2001 103.036 85.0969 101.628 86.787C100.689 88.0077 100.877 89.1345 102.943 93.3598C104.351 96.1767 105.196 98.4303 104.914 98.4303C104.163 98.4303 74.8673 81.8105 71.487 79.4631L68.8579 77.679L71.8626 72.4208C75.9941 65.0968 76.6514 54.6743 73.5528 46.4113C68.2945 32.4207 54.1161 24.2516 38.6231 26.3174ZM49.7029 45.0029C54.9612 47.4442 57.5903 51.7635 57.5903 57.5851C57.5903 63.4067 54.9612 67.7259 49.7029 70.1673C44.7264 72.6086 40.1254 72.7025 36.2756 70.2612C26.4165 64.3457 26.8859 49.8855 37.0268 44.7212C41.2522 42.5615 44.8203 42.5615 49.7029 45.0029ZM202.849 102.186C226.135 107.632 244.539 119.839 259.751 140.121C263.694 145.285 270.643 159.088 272.99 166.318C278.06 181.529 278.53 203.595 274.117 220.496C271.769 229.792 267.638 240.215 266.323 240.215C265.948 240.215 255.056 232.14 242.098 222.28C229.234 212.421 214.774 201.435 209.985 197.867C201.534 191.294 201.441 191.294 202.286 188.29C203.318 184.909 202.567 178.994 200.689 175.332C198.811 171.67 193.365 167.163 189.328 166.13C184.633 164.815 181.816 164.909 177.403 166.506C173.835 167.726 172.614 167.538 146.417 160.966C131.393 157.116 115.525 153.266 111.112 152.421C106.698 151.482 102.755 150.355 102.285 149.98C101.065 148.853 109.328 136.74 116.182 129.51C139.75 104.815 171.3 94.9561 202.849 102.186ZM334.493 126.036C343.037 130.449 339.751 144.064 329.892 145.003C324.54 145.567 321.441 143.97 319.281 139.557C315.901 132.609 320.596 124.721 328.202 124.721C330.173 124.721 332.99 125.285 334.493 126.036ZM151.675 170.731C159.75 172.797 166.605 174.487 166.886 174.487C167.168 174.487 167.45 175.144 167.45 175.895C167.45 177.679 165.102 178.806 159.469 179.651C156.933 180.027 140.407 183.032 122.849 186.318C105.29 189.604 90.5481 192.327 90.0786 192.327C87.8251 192.327 92.8017 167.632 96.5575 160.402L97.8721 157.867L117.403 162.374C128.107 164.909 143.506 168.665 151.675 170.731ZM189.891 176.459C194.586 180.872 194.586 186.881 189.797 190.919C185.854 194.299 182.098 194.017 178.154 190.074C175.713 187.632 174.962 186.13 174.962 183.407C174.962 175.989 184.539 171.482 189.891 176.459ZM166.511 188.759C166.417 190.355 163.694 193.172 156.37 198.994C150.83 203.501 136.182 215.426 123.788 225.567L101.346 244.065L99.4683 240.496C94.9613 231.764 89.5153 211.201 89.5153 203.032C89.5153 200.309 89.797 199.839 91.6749 199.839C92.8956 199.839 107.825 197.304 124.821 194.111C171.581 185.473 166.511 186.13 166.511 188.759ZM175.055 199.088C179.093 202.093 188.201 202.468 193.271 199.839C196.84 198.055 197.121 197.961 199.093 199.557C200.22 200.496 207.638 206.224 215.525 212.233C253.553 241.435 259.844 246.412 260.69 247.82C261.441 249.041 260.596 250.825 256.746 255.989C245.009 271.858 226.417 284.159 206.793 289.135C195.431 291.952 175.994 292.609 165.478 290.45C148.67 287.069 132.051 278.431 119.187 266.412C112.051 259.745 105.666 251.952 106.511 251.107C107.731 249.886 171.769 197.022 171.957 197.022C172.145 197.022 173.459 197.961 175.055 199.088ZM332.709 286.412C339.845 291.295 341.817 297.961 338.155 305.004C333.084 314.769 320.22 315.614 313.554 306.6C310.643 302.656 310.831 294.393 313.835 290.074C318.061 284.252 326.887 282.562 332.709 286.412ZM40.0315 305.943C45.7592 312.328 41.6278 321.905 32.9892 321.905C25.008 321.811 20.5948 314.769 24.2568 307.821C27.4493 301.623 35.2428 300.684 40.0315 305.943Z" fill="black"/>
<path d="M297.309 49.2282C292.427 51.6696 290.173 56.1766 290.643 62.3738C291.018 66.787 291.582 68.1015 294.399 70.9185C297.122 73.6415 298.718 74.3926 302.38 74.6743C310.924 75.5194 316.746 70.0734 316.746 61.341C316.746 55.7071 314.493 51.9513 309.704 49.6038C305.009 47.3503 301.347 47.2564 297.309 49.2282Z" fill="black"/>
<path d="M21.2521 108.759C9.7967 111.482 1.81545 121.905 2.00324 133.923C2.28494 160.872 38.2475 169.041 50.8297 145.003C54.1161 138.618 54.3039 129.228 51.1114 122.562C45.8531 111.764 33.271 105.848 21.2521 108.759ZM34.2099 124.064C38.717 127.069 40.3132 131.858 38.717 137.116C34.3977 150.637 14.6793 146.224 16.5573 132.139C17.684 123.407 26.9798 119.182 34.2099 124.064Z" fill="black"/>
<path d="M28.9517 228.853C18.7169 231.482 12.238 239.745 12.238 250.074C12.238 259.182 16.2756 265.379 24.7263 269.229C34.2099 273.548 46.9799 269.511 51.5809 260.778C58.9049 246.694 50.7358 229.98 35.8062 228.478C33.5527 228.29 30.548 228.478 28.9517 228.853ZM38.8109 240.872C40.3132 241.717 42.1912 243.971 43.0363 245.943C46.2288 252.891 41.0644 259.933 32.8954 259.933C29.9846 259.933 28.5761 259.276 26.0409 256.741C23.4118 254.112 22.8484 252.797 22.8484 249.605C22.8484 246.412 23.4118 245.097 26.0409 242.468C29.7029 238.806 34.3977 238.243 38.8109 240.872Z" fill="black"/>
</svg>
