<svg width="1024" height="815" viewBox="0 0 1024 815" fill="none" xmlns="http://www.w3.org/2000/svg">
<path d="M288.417 51.0575C277.569 52.5039 267.589 57.277 260.213 64.7983C236.202 89.5318 243.724 129.452 275.4 144.929C281.041 147.677 284.512 148.4 295.36 148.4C307.076 148.4 309.246 147.966 317.056 144.061L325.59 139.577L345.84 151.004C356.977 157.368 371.152 165.323 377.371 168.939L388.508 175.448L386.05 178.775C384.603 180.51 380.264 186.296 376.359 191.358L369.271 200.76L355.82 193.673L342.513 186.585L330.508 205.822C323.999 216.381 318.358 225.927 318.069 227.229C317.779 228.531 321.54 232.292 328.483 237.209C334.413 241.549 339.331 245.309 339.331 245.454C339.331 245.743 338.608 247.623 337.74 249.938C336.872 252.107 334.702 260.496 332.967 268.452L329.64 282.916L323.999 283.783C320.962 284.362 314.597 285.23 310.114 285.808L301.724 286.676V309.096C301.724 330.936 301.724 331.37 305.051 332.093C309.39 333.106 329.351 337.156 329.929 337.156C330.218 337.156 330.797 340.627 331.376 344.677C331.954 348.872 333.979 357.695 335.859 364.348C337.74 370.857 339.331 377.076 339.331 378.089C339.331 379.101 335.57 381.994 331.086 384.598C326.458 387.057 321.106 390.383 319.081 391.974L315.61 394.722L319.66 402.533C321.974 406.728 327.036 414.827 330.797 420.613L337.74 430.883L320.094 445.78C310.403 453.88 301.435 461.546 300.133 462.559C298.108 464.294 296.662 464.294 290.298 462.125C281.619 459.377 272.652 460.1 264.407 464.294C257.609 467.766 254.861 470.803 251.245 478.903C245.604 491.342 248.063 503.637 258.188 513.761C272.362 528.081 293.625 526.056 305.196 509.567C310.547 502.045 311.994 488.594 308.522 479.916L306.208 474.708L319.515 463.282C326.892 457.062 340.633 445.636 350.179 437.825L367.536 423.795L370.428 427.845C371.875 430.159 377.66 436.523 383.012 442.164C388.364 447.805 392.848 453.012 392.848 453.88C392.848 454.748 390.533 460.244 387.785 466.319C385.037 472.394 382.723 477.601 382.723 478.18C382.723 479.048 419.461 503.492 420.763 503.492C421.486 503.492 435.083 487.003 438.699 481.94C438.988 481.507 445.207 483.242 452.584 485.846C459.816 488.305 470.23 491.053 475.437 492.065L484.983 493.801L485.996 503.347C486.43 508.554 486.864 515.352 486.864 518.39V523.741L511.163 523.452L535.318 523.018L536.475 508.554C537.199 500.599 537.922 493.946 538.066 493.801C538.211 493.656 543.418 492.499 549.782 491.197C556.002 489.896 566.271 487.003 572.346 484.689L583.628 480.639L590.571 489.317C594.331 494.09 598.526 499.442 599.828 501.033L602.142 503.926L607.783 500.454C610.965 498.574 619.788 492.933 627.599 488.015L641.629 478.758L635.843 468.2C632.661 462.414 630.057 456.773 630.057 455.761C630.057 454.748 633.818 449.83 638.447 445.057C642.93 440.139 648.571 434.065 650.741 431.461L654.646 426.688L667.085 436.523C674.028 441.875 680.826 447.371 682.273 448.529C684.731 450.409 684.876 451.421 683.43 456.484C682.562 459.666 682.128 467.476 682.417 473.841C683.14 487.581 687.624 497.272 697.46 506.385C708.452 516.509 714.238 518.679 730.582 518.679C747.361 518.679 754.014 516.22 764.284 506.385C773.974 496.983 778.024 487.726 778.748 472.828C779.326 461.112 779.037 459.521 774.987 450.987C765.151 429.725 746.204 419.456 722.627 422.638C712.502 424.084 704.547 427.845 696.881 434.788C691.53 439.561 691.385 439.561 688.058 437.102L684.587 434.499L690.372 425.965C697.604 415.261 706.717 399.64 706.717 397.905C706.717 397.326 700.931 393.276 693.988 389.082L681.115 381.56L684.442 371.291C686.178 365.65 688.781 355.814 690.083 349.45C691.385 343.086 692.687 337.59 693.121 337.156C693.555 336.722 699.919 335.42 707.151 334.263L720.458 332.093L720.891 309.529L721.181 286.821L712.936 285.953C691.385 283.494 692.397 283.783 691.385 277.998C690.951 275.105 689.071 267.005 687.19 259.773C685.31 252.686 683.864 246.756 684.008 246.611C684.153 246.466 688.781 243.284 694.133 239.668L704.113 232.87L709.754 239.379C727.69 259.773 757.196 254.566 766.742 229.543C771.949 216.092 766.308 198.012 754.737 190.346C747.071 185.284 735.355 183.114 727.834 185.284C714.383 189.189 704.981 199.458 702.667 212.91L701.51 219.274L692.253 203.653C687.19 195.119 682.706 188.176 682.273 188.176C681.839 188.176 675.33 191.358 667.953 195.264L654.646 202.206L649.295 194.83C646.402 190.78 640.472 183.837 636.277 179.353L628.466 171.109L634.397 158.38C639.025 148.256 639.893 145.363 638.447 143.916C637 142.615 612.845 127.138 603.01 121.208C601.997 120.485 597.947 124.535 592.162 131.767C585.798 139.867 582.471 143.049 580.88 142.47C571.912 138.565 559.473 134.515 549.638 132.345L537.777 129.742L536.909 122.365C536.475 118.46 536.041 112.096 536.041 108.19V101.392H511.453H486.864V110.36C486.864 115.422 486.43 121.787 485.996 124.535C485.128 129.597 484.983 129.742 475.582 131.477C470.375 132.49 459.961 135.383 452.439 137.842C441.157 141.602 438.699 142.036 437.541 140.3C434.649 135.383 422.354 120.34 421.486 120.195C419.895 120.195 387.641 141.602 385.471 144.206C384.025 146.086 384.314 147.822 387.496 154.331C389.666 158.67 390.967 162.141 390.533 162.141C389.376 162.141 344.249 136.54 339.042 132.924L334.992 130.176L339.62 122.076C345.984 110.794 346.997 94.7388 342.224 82.0105C334.124 60.4591 312.283 47.8754 288.417 51.0575ZM305.485 79.8409C313.585 83.6015 317.635 90.255 317.635 99.2227C317.635 108.19 313.585 114.844 305.485 118.604C297.819 122.365 290.732 122.51 284.801 118.749C269.614 109.637 270.337 87.3622 285.959 79.407C292.467 76.0802 297.964 76.0802 305.485 79.8409ZM541.393 167.927C577.264 176.316 605.613 195.119 629.045 226.361C635.12 234.317 645.823 255.579 649.439 266.716C657.25 290.148 657.973 324.138 651.175 350.173C647.559 364.493 641.195 380.548 639.17 380.548C638.591 380.548 621.813 368.109 601.853 352.921C582.037 337.734 559.762 320.811 552.386 315.315C539.368 305.19 539.223 305.19 540.525 300.562C542.116 295.355 540.959 286.242 538.066 280.601C535.174 274.96 526.784 268.018 520.565 266.427C513.333 264.402 508.994 264.546 502.196 267.005C496.699 268.886 494.819 268.596 454.464 258.471C431.322 252.541 406.878 246.611 400.08 245.309C393.282 243.863 387.207 242.127 386.484 241.549C384.603 239.813 397.332 221.154 407.89 210.017C444.195 171.977 492.794 156.789 541.393 167.927ZM744.179 204.665C757.341 211.463 752.278 232.436 737.091 233.883C728.847 234.75 724.074 232.292 720.747 225.493C715.54 214.79 722.772 202.64 734.488 202.64C737.525 202.64 741.864 203.508 744.179 204.665ZM462.564 273.514C475.003 276.696 485.562 279.3 485.996 279.3C486.43 279.3 486.864 280.312 486.864 281.469C486.864 284.217 483.248 285.953 474.569 287.255C470.664 287.833 445.207 292.462 418.16 297.524C391.112 302.587 368.403 306.781 367.68 306.781C364.209 306.781 371.875 268.741 377.66 257.604L379.685 253.698L409.771 260.641C426.26 264.546 449.981 270.332 462.564 273.514ZM521.433 282.337C528.665 289.135 528.665 298.392 521.288 304.612C515.213 309.819 509.428 309.385 503.353 303.31C499.592 299.549 498.435 297.235 498.435 293.04C498.435 281.614 513.188 274.671 521.433 282.337ZM485.417 301.285C485.273 303.744 481.078 308.083 469.796 317.051C461.262 323.993 438.699 342.363 419.606 357.984L385.037 386.478L382.144 380.982C375.202 367.53 366.812 335.854 366.812 323.27C366.812 319.076 367.246 318.352 370.139 318.352C372.019 318.352 395.017 314.447 421.197 309.529C493.228 296.223 485.417 297.235 485.417 301.285ZM498.58 317.195C504.799 321.824 518.829 322.402 526.64 318.352C532.136 315.604 532.57 315.46 535.607 317.919C537.343 319.365 548.77 328.188 560.919 337.445C619.499 382.428 629.19 390.094 630.491 392.264C631.649 394.144 630.347 396.892 624.417 404.847C606.336 429.291 577.698 448.239 547.468 455.905C529.967 460.244 500.026 461.257 483.826 457.93C457.936 452.723 432.334 439.416 412.519 420.902C401.526 410.633 391.691 398.628 392.992 397.326C394.873 395.446 493.517 314.013 493.806 314.013C494.096 314.013 496.121 315.46 498.58 317.195ZM741.43 451.711C752.423 459.232 755.46 469.501 749.82 480.349C742.009 495.392 722.193 496.694 711.924 482.808C707.44 476.733 707.729 464.005 712.358 457.352C718.867 448.384 732.463 445.78 741.43 451.711ZM290.587 481.796C299.41 491.631 293.046 506.385 279.739 506.385C267.445 506.24 260.647 495.392 266.288 484.689C271.205 475.142 283.21 473.696 290.587 481.796Z" fill="black"/>
<path d="M67.0948 697.414C66.791 698.483 66.6897 702.227 66.8922 705.836L67.196 712.386L230.034 712.787L392.77 713.189V704.766V696.344L230.236 695.943C87.652 695.409 67.6011 695.676 67.0948 697.414Z" fill="black"/>
<path d="M619.053 696.039C618.171 696.467 617.779 699.612 617.779 705.042V713.189L780.82 713.046L943.762 712.903V704.471V695.896L781.996 695.753C693.074 695.61 619.641 695.753 619.053 696.039Z" fill="black"/>
<path d="M152.66 663.21C146.94 663.21 141.623 662.22 136.71 660.24C131.797 658.187 127.47 655.363 123.73 651.77C120.063 648.103 117.167 643.887 115.04 639.12C112.987 634.28 111.96 629.073 111.96 623.5C111.96 617.927 112.987 612.757 115.04 607.99C117.167 603.15 120.063 598.933 123.73 595.34C127.47 591.673 131.797 588.85 136.71 586.87C141.623 584.817 146.94 583.79 152.66 583.79C158.38 583.79 163.697 584.817 168.61 586.87C173.597 588.85 177.923 591.673 181.59 595.34C185.33 598.933 188.227 603.15 190.28 607.99C192.333 612.757 193.36 617.927 193.36 623.5C193.36 629.073 192.333 634.28 190.28 639.12C188.227 643.887 185.33 648.103 181.59 651.77C177.923 655.363 173.597 658.187 168.61 660.24C163.697 662.22 158.38 663.21 152.66 663.21ZM152.66 648.58C156.18 648.58 159.407 647.957 162.34 646.71C165.273 645.39 167.84 643.63 170.04 641.43C172.24 639.157 173.963 636.48 175.21 633.4C176.457 630.32 177.08 627.02 177.08 623.5C177.08 619.907 176.457 616.607 175.21 613.6C173.963 610.52 172.24 607.88 170.04 605.68C167.84 603.407 165.273 601.647 162.34 600.4C159.407 599.08 156.18 598.42 152.66 598.42C149.213 598.42 146.023 599.08 143.09 600.4C140.157 601.647 137.59 603.407 135.39 605.68C133.19 607.88 131.467 610.52 130.22 613.6C128.973 616.607 128.35 619.87 128.35 623.39C128.35 626.983 128.973 630.32 130.22 633.4C131.467 636.48 133.19 639.157 135.39 641.43C137.59 643.63 140.157 645.39 143.09 646.71C146.023 647.957 149.213 648.58 152.66 648.58ZM214.412 662V585H252.032C257.239 585 261.822 586.027 265.782 588.08C269.816 590.06 272.932 592.847 275.132 596.44C277.406 600.033 278.542 604.177 278.542 608.87C278.542 613.783 277.186 618.11 274.472 621.85C271.759 625.59 268.129 628.377 263.582 630.21L280.632 662H262.812L247.742 632.52H230.362V662H214.412ZM230.362 619.43H250.602C254.196 619.43 257.056 618.477 259.182 616.57C261.382 614.663 262.482 612.17 262.482 609.09C262.482 606.01 261.382 603.517 259.182 601.61C257.056 599.703 254.196 598.75 250.602 598.75H230.362V619.43ZM334.931 687.96C329.504 687.96 324.921 686.31 321.181 683.01L326.131 677.73C328.917 679.857 331.777 680.92 334.711 680.92C336.691 680.92 338.194 680.517 339.221 679.71C340.247 678.977 340.761 677.987 340.761 676.74C340.761 675.493 340.211 674.503 339.111 673.77C338.084 673.037 336.617 672.67 334.711 672.67H330.091L332.951 662.99C327.671 662.477 322.794 661.157 318.321 659.03C313.847 656.83 309.924 653.97 306.551 650.45C303.251 646.857 300.684 642.787 298.851 638.24C297.017 633.693 296.101 628.78 296.101 623.5C296.101 617.853 297.127 612.647 299.181 607.88C301.307 603.04 304.241 598.823 307.981 595.23C311.721 591.637 316.047 588.85 320.961 586.87C325.947 584.817 331.301 583.79 337.021 583.79C341.274 583.79 345.381 584.377 349.341 585.55C353.301 586.723 356.967 588.373 360.341 590.5C363.787 592.627 366.721 595.193 369.141 598.2L358.361 608.87C355.574 605.423 352.347 602.82 348.681 601.06C345.087 599.3 341.201 598.42 337.021 598.42C333.574 598.42 330.347 599.08 327.341 600.4C324.334 601.647 321.731 603.407 319.531 605.68C317.331 607.88 315.607 610.52 314.361 613.6C313.114 616.607 312.491 619.907 312.491 623.5C312.491 627.02 313.114 630.32 314.361 633.4C315.607 636.407 317.367 639.047 319.641 641.32C321.914 643.52 324.554 645.243 327.561 646.49C330.641 647.737 333.977 648.36 337.571 648.36C341.604 648.36 345.381 647.517 348.901 645.83C352.421 644.143 355.537 641.723 358.251 638.57L368.701 648.91C365.327 652.87 361.111 656.097 356.051 658.59C351.064 661.083 345.784 662.55 340.211 662.99L339.111 667.06C342.337 667.28 344.867 668.27 346.701 670.03C348.607 671.79 349.561 674.063 349.561 676.85C349.561 680.003 348.167 682.643 345.381 684.77C342.594 686.897 339.111 687.96 334.931 687.96ZM380.656 662L412.336 585H430.706L462.056 662H444.786L436.976 641.76H405.186L397.266 662H380.656ZM410.136 629H432.136L421.136 600.62L410.136 629ZM478.592 662V585H499.052L520.172 626.58L541.292 585H561.752V662H546.682V605.35L519.952 656.5L493.332 605.13V662H478.592ZM585.594 662V585H644.774V598.86H601.544V616.46H630.034V629.88H601.544V648.14H645.214V662H585.594ZM666.493 662V585H681.673L719.953 634.72V585H734.913V662H720.833L681.563 610.52V662H666.493ZM779.895 662V599.08H753.935V585H821.695V599.08H795.845V662H779.895ZM873.646 663.21C867.926 663.21 862.61 662.22 857.696 660.24C852.783 658.187 848.456 655.363 844.716 651.77C841.05 648.103 838.153 643.887 836.026 639.12C833.973 634.28 832.946 629.073 832.946 623.5C832.946 617.927 833.973 612.757 836.026 607.99C838.153 603.15 841.05 598.933 844.716 595.34C848.456 591.673 852.783 588.85 857.696 586.87C862.61 584.817 867.926 583.79 873.646 583.79C879.366 583.79 884.683 584.817 889.596 586.87C894.583 588.85 898.91 591.673 902.576 595.34C906.316 598.933 909.213 603.15 911.266 607.99C913.32 612.757 914.346 617.927 914.346 623.5C914.346 629.073 913.32 634.28 911.266 639.12C909.213 643.887 906.316 648.103 902.576 651.77C898.91 655.363 894.583 658.187 889.596 660.24C884.683 662.22 879.366 663.21 873.646 663.21ZM873.646 648.58C877.166 648.58 880.393 647.957 883.326 646.71C886.26 645.39 888.826 643.63 891.026 641.43C893.226 639.157 894.95 636.48 896.196 633.4C897.443 630.32 898.066 627.02 898.066 623.5C898.066 619.907 897.443 616.607 896.196 613.6C894.95 610.52 893.226 607.88 891.026 605.68C888.826 603.407 886.26 601.647 883.326 600.4C880.393 599.08 877.166 598.42 873.646 598.42C870.2 598.42 867.01 599.08 864.076 600.4C861.143 601.647 858.576 603.407 856.376 605.68C854.176 607.88 852.453 610.52 851.206 613.6C849.96 616.607 849.336 619.87 849.336 623.39C849.336 626.983 849.96 630.32 851.206 633.4C852.453 636.48 854.176 639.157 856.376 641.43C858.576 643.63 861.143 645.39 864.076 646.71C867.01 647.957 870.2 648.58 873.646 648.58Z" fill="black"/>
<path d="M398.744 778L417.176 733.2H427.864L446.104 778H436.056L431.512 766.224H413.016L408.408 778H398.744ZM415.896 758.8H428.696L422.296 742.288L415.896 758.8ZM477.168 778.64C473.115 778.64 469.595 777.829 466.608 776.208C463.664 774.587 461.381 772.283 459.76 769.296C458.139 766.267 457.328 762.725 457.328 758.672V733.2H466.608V758.672C466.608 760.976 467.035 763.003 467.888 764.752C468.784 766.459 470.021 767.781 471.6 768.72C473.221 769.616 475.099 770.064 477.232 770.064C479.365 770.064 481.221 769.616 482.8 768.72C484.379 767.781 485.595 766.459 486.448 764.752C487.344 763.003 487.792 760.976 487.792 758.672V733.2H497.008V758.672C497.008 762.683 496.197 766.203 494.576 769.232C492.955 772.219 490.651 774.544 487.664 776.208C484.72 777.829 481.221 778.64 477.168 778.64ZM526.631 778V741.392H511.527V733.2H550.951V741.392H535.911V778H526.631ZM585.359 778.704C582.031 778.704 578.938 778.128 576.079 776.976C573.22 775.781 570.703 774.139 568.527 772.048C566.394 769.915 564.708 767.461 563.471 764.688C562.276 761.872 561.679 758.843 561.679 755.6C561.679 752.357 562.276 749.349 563.471 746.576C564.708 743.76 566.394 741.307 568.527 739.216C570.703 737.083 573.22 735.44 576.079 734.288C578.938 733.093 582.031 732.496 585.359 732.496C588.687 732.496 591.78 733.093 594.639 734.288C597.54 735.44 600.058 737.083 602.191 739.216C604.367 741.307 606.052 743.76 607.247 746.576C608.442 749.349 609.039 752.357 609.039 755.6C609.039 758.843 608.442 761.872 607.247 764.688C606.052 767.461 604.367 769.915 602.191 772.048C600.058 774.139 597.54 775.781 594.639 776.976C591.78 778.128 588.687 778.704 585.359 778.704ZM585.359 770.192C587.407 770.192 589.284 769.829 590.991 769.104C592.698 768.336 594.191 767.312 595.471 766.032C596.751 764.709 597.754 763.152 598.479 761.36C599.204 759.568 599.567 757.648 599.567 755.6C599.567 753.509 599.204 751.589 598.479 749.84C597.754 748.048 596.751 746.512 595.471 745.232C594.191 743.909 592.698 742.885 590.991 742.16C589.284 741.392 587.407 741.008 585.359 741.008C583.354 741.008 581.498 741.392 579.791 742.16C578.084 742.885 576.591 743.909 575.311 745.232C574.031 746.512 573.028 748.048 572.303 749.84C571.578 751.589 571.215 753.488 571.215 755.536C571.215 757.627 571.578 759.568 572.303 761.36C573.028 763.152 574.031 764.709 575.311 766.032C576.591 767.312 578.084 768.336 579.791 769.104C581.498 769.829 583.354 770.192 585.359 770.192Z" fill="black"/>
</svg>
