<svg width="128" height="114" viewBox="0 0 128 114" fill="none" xmlns="http://www.w3.org/2000/svg">
<path d="M10.1731 0.117453C7.56747 0.464865 5.17033 1.61132 3.39853 3.41786C-2.36851 9.3586 -0.561965 18.9472 7.04635 22.6645C8.40125 23.3245 9.23504 23.4983 11.8406 23.4983C14.6547 23.4983 15.1758 23.394 17.0518 22.456L19.1015 21.379L23.9653 24.1236C26.6404 25.6522 30.045 27.563 31.5389 28.4315L34.2139 29.9948L33.6233 30.7939C33.2759 31.2108 32.2337 32.6004 31.2957 33.8164L29.5934 36.0745L26.3624 34.3722L23.1662 32.6699L20.2827 37.2905C18.7194 39.8266 17.3645 42.1195 17.295 42.4322C17.2255 42.7449 18.1288 43.6481 19.7964 44.8293C21.2207 45.8716 22.4019 46.7748 22.4019 46.8096C22.4019 46.879 22.2282 47.3307 22.0198 47.8865C21.8113 48.4077 21.2902 50.4226 20.8733 52.3334L20.0743 55.8075L18.7194 56.016C17.9898 56.1549 16.4612 56.3634 15.3842 56.5023L13.3692 56.7108V62.0957C13.3692 67.3416 13.3692 67.4458 14.1683 67.6195C15.2105 67.8627 20.0048 68.8355 20.1438 68.8355C20.2132 68.8355 20.3522 69.6692 20.4912 70.642C20.6301 71.6495 21.1165 73.7687 21.5682 75.3668C22.0198 76.9301 22.4019 78.424 22.4019 78.6672C22.4019 78.9104 21.4987 79.6052 20.4217 80.2306C19.31 80.8212 18.0246 81.6202 17.5382 82.0024L16.7044 82.6624L17.6771 84.5385C18.233 85.546 19.4489 87.4915 20.3522 88.8811L22.0198 91.3477L17.7814 94.9261C15.4537 96.8716 13.2998 98.7129 12.9871 98.956C12.5007 99.3729 12.1533 99.3729 10.6247 98.8518C8.54022 98.1917 6.38627 98.3654 4.40602 99.3729C2.77319 100.207 2.1131 100.936 1.24457 102.882C-0.11033 105.87 0.480269 108.823 2.91215 111.254C6.31678 114.694 11.4237 114.207 14.203 110.247C15.4884 108.44 15.8359 105.209 15.0021 103.125L14.4462 101.874L17.6424 99.1297C19.4142 97.6359 22.7146 94.8913 25.0075 93.0153L29.1765 89.6454L29.8713 90.6182C30.2187 91.174 31.6083 92.7026 32.8938 94.0575C34.1792 95.4124 35.2562 96.6631 35.2562 96.8716C35.2562 97.08 34.7003 98.4002 34.0402 99.8593C33.3801 101.318 32.8243 102.569 32.8243 102.708C32.8243 102.917 41.6485 108.788 41.9612 108.788C42.1349 108.788 45.4006 104.827 46.2691 103.611C46.3386 103.507 47.8325 103.924 49.6043 104.549C51.3413 105.14 53.8427 105.8 55.0934 106.043L57.3863 106.46L57.6295 108.753C57.7337 110.004 57.8379 111.637 57.8379 112.366V113.652L63.6744 113.582L69.4762 113.478L69.7541 110.004C69.9278 108.093 70.1015 106.495 70.1363 106.46C70.171 106.425 71.4217 106.147 72.9503 105.835C74.4442 105.522 76.9108 104.827 78.3699 104.271L81.0798 103.299L82.7473 105.383C83.6506 106.53 84.6581 107.815 84.9708 108.197L85.5266 108.892L86.8815 108.058C87.6458 107.607 89.765 106.252 91.6411 105.07L95.011 102.847L93.6213 100.311C92.857 98.9213 92.2317 97.5664 92.2317 97.3232C92.2317 97.08 93.1349 95.8988 94.2466 94.7524C95.3236 93.5712 96.6785 92.112 97.1996 91.4867L98.1377 90.3402L101.125 92.7026C102.793 93.9881 104.426 95.3082 104.773 95.5861C105.364 96.0378 105.399 96.281 105.051 97.4969C104.843 98.2612 104.738 100.137 104.808 101.666C104.982 104.966 106.059 107.294 108.421 109.483C111.061 111.914 112.451 112.436 116.377 112.436C120.407 112.436 122.005 111.845 124.471 109.483C126.799 107.224 127.772 105.001 127.946 101.423C128.085 98.6086 128.015 98.2265 127.042 96.1767C124.68 91.0698 120.129 88.6032 114.466 89.3675C112.034 89.7149 110.123 90.6182 108.282 92.2857C106.997 93.4322 106.962 93.4322 106.163 92.8416L105.329 92.2163L106.719 90.1665C108.456 87.5957 110.644 83.8436 110.644 83.4267C110.644 83.2878 109.255 82.315 107.587 81.3075L104.495 79.501L105.294 77.0344C105.711 75.6795 106.337 73.3171 106.649 71.7885C106.962 70.2598 107.275 68.9397 107.379 68.8355C107.483 68.7312 109.012 68.4186 110.749 68.1406L113.945 67.6195L114.049 62.1999L114.119 56.7455L112.138 56.5371C106.962 55.9465 107.205 56.016 106.962 54.6263C106.858 53.9315 106.406 51.986 105.954 50.2489C105.503 48.5466 105.155 47.1222 105.19 47.0875C105.225 47.0528 106.337 46.2884 107.622 45.4199L110.019 43.7871L111.374 45.3504C115.682 50.2489 122.769 48.9983 125.062 42.988C126.313 39.7571 124.958 35.4145 122.179 33.5732C120.337 32.3572 117.523 31.8361 115.717 32.3572C112.486 33.2953 110.228 35.7619 109.672 38.9928L109.394 40.5214L107.17 36.7694C105.954 34.7196 104.877 33.0521 104.773 33.0521C104.669 33.0521 103.106 33.8164 101.334 34.7544L98.1377 36.422L96.8522 34.6502C96.1574 33.6774 94.733 32.0098 93.7255 30.9329L91.8495 28.9526L93.2739 25.8954C94.3856 23.4635 94.5941 22.7687 94.2466 22.4213C93.8992 22.1086 88.0975 18.3913 85.7351 16.9669C85.4919 16.7932 84.5191 17.766 83.1295 19.503C81.6009 21.4485 80.8018 22.2128 80.4197 22.0739C78.2657 21.1359 75.278 20.1631 72.9156 19.642L70.0668 19.0166L69.8584 17.2448C69.7541 16.3068 69.6499 14.7782 69.6499 13.8402V12.2074H63.7439H57.8379V14.3613C57.8379 15.5773 57.7337 17.1059 57.6295 17.766C57.421 18.9819 57.3863 19.0166 55.1281 19.4335C53.8774 19.6767 51.3761 20.3715 49.5695 20.9621C46.8597 21.8654 46.2691 21.9696 45.9912 21.5527C45.2964 20.3715 42.3434 16.7585 42.1349 16.7237C41.7528 16.7237 34.0055 21.8654 33.4844 22.4908C33.137 22.9424 33.2064 23.3593 33.9707 24.9226C34.4919 25.9649 34.8045 26.7987 34.7003 26.7987C34.4224 26.7987 23.5831 20.6495 22.3325 19.7809L21.3597 19.1209L22.4714 17.1754C24 14.4656 24.2432 10.6093 23.0968 7.55206C21.1513 2.37563 15.9053 -0.646852 10.1731 0.117453ZM14.2725 7.03094C16.218 7.93421 17.1908 9.53231 17.1908 11.6863C17.1908 13.8402 16.218 15.4383 14.2725 16.3416C12.4312 17.2448 10.7289 17.2796 9.30452 16.3763C5.6567 14.1876 5.83041 8.83748 9.58245 6.92672C11.1458 6.12767 12.466 6.12767 14.2725 7.03094ZM70.9353 28.1883C79.5511 30.2033 86.3604 34.7196 91.9885 42.2237C93.4476 44.1345 96.0184 49.2414 96.887 51.9165C98.763 57.5446 98.9367 65.7088 97.3039 71.9622C96.4353 75.4015 94.9067 79.2578 94.4204 79.2578C94.2814 79.2578 90.2514 76.2701 85.4571 72.6222C80.6976 68.9744 75.3475 64.9097 73.5757 63.5895C70.449 61.1577 70.4142 61.1577 70.7269 60.0459C71.109 58.7953 70.8311 56.6066 70.1363 55.2517C69.4415 53.8968 67.4265 52.2292 65.9326 51.847C64.1955 51.3607 63.1533 51.3954 61.5205 51.986C60.2003 52.4376 59.7487 52.3682 50.0559 49.9363C44.4973 48.5119 38.6261 47.0875 36.9932 46.7748C35.3604 46.4274 33.9013 46.0105 33.7276 45.8716C33.2759 45.4547 36.3331 40.9731 38.8692 38.298C47.5893 29.1611 59.2623 25.5132 70.9353 28.1883ZM119.642 37.0126C122.804 38.6454 121.588 43.6829 117.94 44.0303C115.96 44.2387 114.813 43.6481 114.014 42.0153C112.764 39.4444 114.501 36.5262 117.315 36.5262C118.044 36.5262 119.087 36.7346 119.642 37.0126ZM52.0014 53.5494C54.9891 54.3137 57.5252 54.939 57.6295 54.939C57.7337 54.939 57.8379 55.1822 57.8379 55.4601C57.8379 56.1202 56.9694 56.5371 54.8849 56.8498C53.9469 56.9887 47.8325 58.1004 41.3359 59.3164C34.8393 60.5323 29.3849 61.5398 29.2112 61.5398C28.3774 61.5398 30.2187 52.4029 31.6083 49.7278L32.0947 48.7898L39.3209 50.4574C43.2814 51.3954 48.9789 52.785 52.0014 53.5494ZM66.1411 55.6686C67.8781 57.3014 67.8781 59.5248 66.1063 61.0187C64.6472 62.2694 63.2575 62.1652 61.7984 60.706C60.8951 59.8028 60.6172 59.2469 60.6172 58.2394C60.6172 55.4949 64.1608 53.8273 66.1411 55.6686ZM57.4905 60.2197C57.4558 60.8103 56.4483 61.8525 53.7385 64.0064C51.6887 65.674 46.2691 70.0861 41.6833 73.8382L33.3801 80.6822L32.6853 79.362C31.0177 76.1311 29.0028 68.5228 29.0028 65.5003C29.0028 64.4928 29.107 64.3191 29.8018 64.3191C30.2534 64.3191 35.7773 63.3811 42.0654 62.1999C59.3665 59.0037 57.4905 59.2469 57.4905 60.2197ZM60.652 64.0412C62.1458 65.1529 65.5157 65.2919 67.3917 64.3191C68.7119 63.659 68.8161 63.6243 69.5457 64.2149C69.9626 64.5623 72.7071 66.6815 75.6254 68.9049C89.6956 79.7094 92.0232 81.5507 92.3359 82.0718C92.6138 82.5235 92.3011 83.1836 90.8768 85.0943C86.5341 90.9656 79.6554 95.5167 72.3945 97.3579C68.1908 98.4002 60.9994 98.6434 57.1084 97.8443C50.8897 96.5936 44.7405 93.3975 39.981 88.9506C37.3406 86.484 34.9782 83.6005 35.2909 83.2878C35.7425 82.8361 59.436 63.2769 59.5055 63.2769C59.575 63.2769 60.0614 63.6243 60.652 64.0412ZM118.982 96.3505C121.623 98.157 122.352 100.624 120.997 103.229C119.121 106.842 114.362 107.155 111.895 103.82C110.818 102.361 110.888 99.3035 111.999 97.7054C113.563 95.5514 116.828 94.9261 118.982 96.3505ZM10.6942 103.577C12.8134 105.939 11.2848 109.483 8.08858 109.483C5.13558 109.448 3.50275 106.842 4.85765 104.271C6.03885 101.979 8.92237 101.631 10.6942 103.577Z" fill="black"/>
</svg>
