<svg width="128" height="114" viewBox="0 0 128 114" fill="none" xmlns="http://www.w3.org/2000/svg">
<path d="M10.1731 0.117392C7.56747 0.464804 5.17033 1.61126 3.39853 3.4178C-2.36851 9.35854 -0.561965 18.9471 7.04635 22.6644C8.40125 23.3245 9.23504 23.4982 11.8406 23.4982C14.6547 23.4982 15.1758 23.394 17.0518 22.456L19.1015 21.379L23.9653 24.1235C26.6404 25.6521 30.045 27.5629 31.5389 28.4314L34.2139 29.9948L33.6233 30.7938C33.2759 31.2107 32.2337 32.6004 31.2957 33.8163L29.5934 36.0745L26.3624 34.3722L23.1662 32.6699L20.2827 37.2904C18.7194 39.8265 17.3645 42.1194 17.295 42.4321C17.2255 42.7448 18.1288 43.6481 19.7964 44.8293C21.2207 45.8715 22.4019 46.7748 22.4019 46.8095C22.4019 46.879 22.2282 47.3306 22.0198 47.8865C21.8113 48.4076 21.2902 50.4226 20.8733 52.3333L20.0743 55.8075L18.7194 56.0159C17.9898 56.1549 16.4612 56.3633 15.3842 56.5023L13.3692 56.7107V62.0956C13.3692 67.3415 13.3692 67.4458 14.1683 67.6195C15.2105 67.8626 20.0048 68.8354 20.1438 68.8354C20.2132 68.8354 20.3522 69.6692 20.4912 70.6419C20.6301 71.6494 21.1165 73.7686 21.5682 75.3667C22.0198 76.9301 22.4019 78.424 22.4019 78.6671C22.4019 78.9103 21.4987 79.6052 20.4217 80.2305C19.31 80.8211 18.0246 81.6201 17.5382 82.0023L16.7044 82.6624L17.6771 84.5384C18.233 85.5459 19.4489 87.4914 20.3522 88.881L22.0198 91.3477L17.7814 94.926C15.4537 96.8715 13.2998 98.7128 12.9871 98.956C12.5007 99.3729 12.1533 99.3729 10.6247 98.8518C8.54022 98.1917 6.38627 98.3654 4.40602 99.3729C2.77319 100.207 2.1131 100.936 1.24457 102.882C-0.11033 105.869 0.480269 108.822 2.91215 111.254C6.31678 114.694 11.4237 114.207 14.203 110.247C15.4884 108.44 15.8359 105.209 15.0021 103.125L14.4462 101.874L17.6424 99.1297C19.4142 97.6358 22.7146 94.8913 25.0075 93.0152L29.1765 89.6454L29.8713 90.6181C30.2187 91.174 31.6083 92.7026 32.8938 94.0575C34.1792 95.4124 35.2562 96.6631 35.2562 96.8715C35.2562 97.08 34.7003 98.4001 34.0402 99.8593C33.3801 101.318 32.8243 102.569 32.8243 102.708C32.8243 102.916 41.6485 108.788 41.9612 108.788C42.1349 108.788 45.4006 104.827 46.2691 103.611C46.3386 103.507 47.8325 103.924 49.6043 104.549C51.3413 105.14 53.8427 105.8 55.0934 106.043L57.3863 106.46L57.6295 108.753C57.7337 110.004 57.8379 111.637 57.8379 112.366V113.651L63.6744 113.582L69.4762 113.478L69.7541 110.004C69.9278 108.093 70.1015 106.495 70.1363 106.46C70.171 106.425 71.4217 106.147 72.9503 105.835C74.4442 105.522 76.9108 104.827 78.3699 104.271L81.0798 103.299L82.7473 105.383C83.6506 106.53 84.6581 107.815 84.9708 108.197L85.5266 108.892L86.8815 108.058C87.6458 107.607 89.765 106.252 91.6411 105.07L95.011 102.847L93.6213 100.311C92.857 98.9212 92.2317 97.5663 92.2317 97.3231C92.2317 97.08 93.1349 95.8988 94.2466 94.7523C95.3236 93.5711 96.6785 92.112 97.1996 91.4866L98.1377 90.3402L101.125 92.7026C102.793 93.988 104.426 95.3082 104.773 95.5861C105.364 96.0377 105.399 96.2809 105.051 97.4969C104.843 98.2612 104.738 100.137 104.808 101.666C104.982 104.966 106.059 107.294 108.421 109.483C111.061 111.914 112.451 112.436 116.377 112.436C120.407 112.436 122.005 111.845 124.471 109.483C126.799 107.224 127.772 105.001 127.946 101.423C128.085 98.6086 128.015 98.2264 127.042 96.1767C124.68 91.0697 120.129 88.6031 114.466 89.3674C112.034 89.7148 110.123 90.6181 108.282 92.2857C106.997 93.4321 106.962 93.4321 106.163 92.8415L105.329 92.2162L106.719 90.1665C108.456 87.5956 110.644 83.8436 110.644 83.4267C110.644 83.2877 109.255 82.315 107.587 81.3075L104.495 79.5009L105.294 77.0343C105.711 75.6794 106.337 73.317 106.649 71.7884C106.962 70.2598 107.275 68.9396 107.379 68.8354C107.483 68.7312 109.012 68.4185 110.749 68.1406L113.945 67.6195L114.049 62.1998L114.119 56.7455L112.138 56.537C106.962 55.9464 107.205 56.0159 106.962 54.6263C106.858 53.9314 106.406 51.9859 105.954 50.2489C105.503 48.5466 105.155 47.1222 105.19 47.0874C105.225 47.0527 106.337 46.2884 107.622 45.4199L110.019 43.787L111.374 45.3504C115.682 50.2489 122.769 48.9982 125.062 42.988C126.313 39.7571 124.958 35.4144 122.179 33.5731C120.337 32.3572 117.523 31.8361 115.717 32.3572C112.486 33.2952 110.228 35.7618 109.672 38.9927L109.394 40.5214L107.17 36.7693C105.954 34.7196 104.877 33.052 104.773 33.052C104.669 33.052 103.106 33.8163 101.334 34.7543L98.1377 36.4219L96.8522 34.6501C96.1574 33.6773 94.733 32.0098 93.7255 30.9328L91.8495 28.9526L93.2739 25.8953C94.3856 23.4634 94.5941 22.7686 94.2466 22.4212C93.8992 22.1085 88.0975 18.3912 85.7351 16.9669C85.4919 16.7931 84.5191 17.7659 83.1295 19.503C81.6009 21.4485 80.8018 22.2128 80.4197 22.0738C78.2657 21.1358 75.278 20.163 72.9156 19.6419L70.0668 19.0166L69.8584 17.2448C69.7541 16.3068 69.6499 14.7782 69.6499 13.8401V12.2073H63.7439H57.8379V14.3613C57.8379 15.5772 57.7337 17.1058 57.6295 17.7659C57.421 18.9818 57.3863 19.0166 55.1281 19.4335C53.8774 19.6767 51.3761 20.3715 49.5695 20.9621C46.8597 21.8654 46.2691 21.9696 45.9912 21.5527C45.2964 20.3715 42.3434 16.7584 42.1349 16.7237C41.7528 16.7237 34.0055 21.8654 33.4844 22.4907C33.137 22.9423 33.2064 23.3592 33.9707 24.9226C34.4919 25.9648 34.8045 26.7986 34.7003 26.7986C34.4224 26.7986 23.5831 20.6494 22.3325 19.7809L21.3597 19.1208L22.4714 17.1753C24 14.4655 24.2432 10.6092 23.0968 7.552C21.1513 2.37557 15.9053 -0.646913 10.1731 0.117392ZM14.2725 7.03088C16.218 7.93415 17.1908 9.53225 17.1908 11.6862C17.1908 13.8401 16.218 15.4382 14.2725 16.3415C12.4312 17.2448 10.7289 17.2795 9.30452 16.3763C5.6567 14.1876 5.83041 8.83742 9.58245 6.92666C11.1458 6.12761 12.466 6.12761 14.2725 7.03088ZM70.9353 28.1882C79.5511 30.2032 86.3604 34.7196 91.9885 42.2237C93.4476 44.1344 96.0184 49.2414 96.887 51.9165C98.763 57.5445 98.9367 65.7087 97.3039 71.9621C96.4353 75.4015 94.9067 79.2577 94.4204 79.2577C94.2814 79.2577 90.2514 76.27 85.4571 72.6222C80.6976 68.9744 75.3475 64.9096 73.5757 63.5895C70.449 61.1576 70.4142 61.1576 70.7269 60.0459C71.109 58.7952 70.8311 56.6065 70.1363 55.2516C69.4415 53.8967 67.4265 52.2291 65.9326 51.847C64.1955 51.3606 63.1533 51.3953 61.5205 51.9859C60.2003 52.4376 59.7487 52.3681 50.0559 49.9362C44.4973 48.5118 38.6261 47.0874 36.9932 46.7748C35.3604 46.4274 33.9013 46.0105 33.7276 45.8715C33.2759 45.4546 36.3331 40.973 38.8692 38.2979C47.5893 29.161 59.2623 25.5132 70.9353 28.1882ZM119.642 37.0125C122.804 38.6453 121.588 43.6828 117.94 44.0302C115.96 44.2387 114.813 43.6481 114.014 42.0152C112.764 39.4444 114.501 36.5261 117.315 36.5261C118.044 36.5261 119.087 36.7346 119.642 37.0125ZM52.0014 53.5493C54.9891 54.3136 57.5252 54.9389 57.6295 54.9389C57.7337 54.9389 57.8379 55.1821 57.8379 55.4601C57.8379 56.1201 56.9694 56.537 54.8849 56.8497C53.9469 56.9887 47.8325 58.1004 41.3359 59.3163C34.8393 60.5323 29.3849 61.5398 29.2112 61.5398C28.3774 61.5398 30.2187 52.4028 31.6083 49.7278L32.0947 48.7898L39.3209 50.4573C43.2814 51.3953 48.9789 52.785 52.0014 53.5493ZM66.1411 55.6685C67.8781 57.3013 67.8781 59.5248 66.1063 61.0186C64.6472 62.2693 63.2575 62.1651 61.7984 60.706C60.8951 59.8027 60.6172 59.2468 60.6172 58.2393C60.6172 55.4948 64.1608 53.8272 66.1411 55.6685ZM57.4905 60.2196C57.4558 60.8102 56.4483 61.8524 53.7385 64.0064C51.6887 65.674 46.2691 70.0861 41.6833 73.8381L33.3801 80.6821L32.6853 79.362C31.0177 76.131 29.0028 68.5227 29.0028 65.5002C29.0028 64.4928 29.107 64.319 29.8018 64.319C30.2534 64.319 35.7773 63.381 42.0654 62.1998C59.3665 59.0037 57.4905 59.2468 57.4905 60.2196ZM60.652 64.0411C62.1458 65.1528 65.5157 65.2918 67.3917 64.319C68.7119 63.659 68.8161 63.6242 69.5457 64.2148C69.9626 64.5622 72.7071 66.6814 75.6254 68.9049C89.6956 79.7094 92.0232 81.5507 92.3359 82.0718C92.6138 82.5234 92.3011 83.1835 90.8768 85.0943C86.5341 90.9655 79.6554 95.5166 72.3945 97.3579C68.1908 98.4001 60.9994 98.6433 57.1084 97.8443C50.8897 96.5936 44.7405 93.3974 39.981 88.9505C37.3406 86.4839 34.9782 83.6004 35.2909 83.2877C35.7425 82.8361 59.436 63.2768 59.5055 63.2768C59.575 63.2768 60.0614 63.6242 60.652 64.0411ZM118.982 96.3504C121.623 98.1569 122.352 100.624 120.997 103.229C119.121 106.842 114.362 107.155 111.895 103.82C110.818 102.361 110.888 99.3034 111.999 97.7053C113.563 95.5513 116.828 94.926 118.982 96.3504ZM10.6942 103.577C12.8134 105.939 11.2848 109.483 8.08858 109.483C5.13558 109.448 3.50275 106.842 4.85765 104.271C6.03885 101.978 8.92237 101.631 10.6942 103.577Z" fill="#ECECEC"/>
</svg>
